<?xml version="1.0" encoding="UTF-8" standalone="no"?>
<svg
   xmlns:dc="http://purl.org/dc/elements/1.1/"
   xmlns:cc="http://creativecommons.org/ns#"
   xmlns:rdf="http://www.w3.org/1999/02/22-rdf-syntax-ns#"
   xmlns:svg="http://www.w3.org/2000/svg"
   xmlns="http://www.w3.org/2000/svg"
   xmlns:sodipodi="http://sodipodi.sourceforge.net/DTD/sodipodi-0.dtd"
   xmlns:inkscape="http://www.inkscape.org/namespaces/inkscape"
   version="1.0"
   width="512px"
   height="512px"
   viewBox="0 0 5120 5120"
   preserveAspectRatio="xMidYMid meet"
   id="svg2"
   inkscape:export-xdpi="308.73999"
   inkscape:export-ydpi="308.73999">
  <metadata
     id="metadata546">
    <rdf:RDF>
      <cc:Work
         rdf:about="">
        <dc:format>image/svg+xml</dc:format>
        <dc:type
           rdf:resource="http://purl.org/dc/dcmitype/StillImage" />
      </cc:Work>
    </rdf:RDF>
  </metadata>
  <defs
     id="defs544" />
  <sodipodi:namedview
     pagecolor="#ffffff"
     bordercolor="#666666"
     borderopacity="1"
     objecttolerance="10"
     gridtolerance="10"
     guidetolerance="10"
     inkscape:pageopacity="0"
     inkscape:pageshadow="2"
     inkscape:window-width="1366"
     inkscape:window-height="715"
     id="namedview542"
     showgrid="false"
     showguides="true"
     inkscape:guide-bbox="true"
     inkscape:zoom="1.3037281"
     inkscape:cx="464.00074"
     inkscape:cy="217.00869"
     inkscape:window-x="113"
     inkscape:window-y="922"
     inkscape:window-maximized="1"
     inkscape:current-layer="svg2">
    <sodipodi:guide
       position="3827.4851,1050.8326"
       orientation="0,1"
       id="guide4674" />
    <sodipodi:guide
       position="2820.339,2277.9661"
       orientation="0,1"
       id="guide4676" />
  </sodipodi:namedview>
  <g
     id="layer5"
     style="fill:#000000;stroke:#ffffff;stroke-width:99.99999851;stroke-miterlimit:4;stroke-dasharray:none;stroke-opacity:1;fill-opacity:0"
     transform="translate(0,-5.0473198)">
    <path
       d="m 1819.8305,2430.5763 c -0.7082,-53.444 -179.3747,-204.6399 -168.2373,-256.9153 27.9735,-144.7834 -36.3069,-195.404 2.4068,-298.661 9,-22 13,-43 8,-49 -5,-6 -15,-27 -22,-46 -8,-19 -24,-48 -36,-65 -30,-42 -39,-88 -19,-105 12,-10 18,-10 31,1 14,11 16,9 14,-27 -1,-21 -1,-42 0,-46 2,-5 3,-12 4,-16 1,-12 86,-92 96,-92 4,0 10,-27 12,-60 6,-90 56,-146 138,-157 38,-5 44,-10 61,-47 33,-77 92,-112 167,-101 38,6 46,3 83,-28 47,-41 79,-49 136,-35 37,9 46,7 73,-12 35,-25 119,-32 143,-12 14,12 46,-2 33,-15 -4,-4 -11,-8 -14,-9 -4,0 -14,-3 -22,-7 -8,-3 -24,-7 -34,-9 -30,-5 -25,-21 9,-30 43,-12 87,-2 133,31 58,43 114,69 137,64 69,-13 102,-7 153,26 46,29 60,33 118,33 64,0 67,1 110,44 48,49 45.7288,18.0339 22.7288,-16.9661 -14,-22 4.2712,0.9661 22.2712,0.9661 4,0 26,24 49,53 22,28 55,69 73,90 44,51 67,96 67,130 0,27 20,42 74,53 20,4 56,32 54,43 -1,3 4,18 10,32 12,31 9,65 -6,62 -14,-3 -25,32 -17,57 4,13 -1,30 -14,46 -21,26 -21,26 -1,51 24,31 25,56 5,73 -9,7 -14,19 -11,26 3,8 -3,18 -12,24 -14,8 -15,11 -3,19 9,6 15,35 18,88 4,68 1,84 -20,123 -13,25 12.678,156.8983 7.678,153.8983 -5,-3 -1.5763,-6.2881 -0.5763,-12.2881 2,-5 -48.1017,59.7627 -40.8136,47.3559 4,-20 5.7119,2.4068 -7.2881,12.4068 -12,10 -29.5593,65.9491 -38.5593,50.9491 -9,-17 -7.2882,7.4068 -21.2882,25.4068 -7,10 -38.2711,14.2881 -49.2711,11.2881 -16,-3 6.1186,-319.0169 -3.8814,-394.0169 -7,-50 -11,-116 -9,-148 2,-47 0,-57 -11,-53 -8,3 -25,-6 -39,-21 -28,-30 -71,-54 -93,-52 -9,1 -21,1 -28,0 -18,-2 -84,-62 -78,-71 3,-4 -2,-10 -10,-14 -8,-3 -12,-12 -9,-20 10,-26 -17,-28 -41,-2 -22,24 -37,31 -59,27 -4,-1 -13,3 -20,8 -14,11 -71,8 -109,-8 -16,-6 -33,-9 -37,-6 -5,3 -13,-3 -19,-12 -6,-10 -11,-14 -11,-9 0,6 -9,0 -20,-12 -28,-29 -32,-28 -71,16 -18,20 -35,35 -37,34 -3,-2 -8,2 -13,10 -5,7 -12,13 -16,13 -4,1 -18,6 -31,14 -18,9 -27,10 -38,1 -14,-12 -9,-35 6,-25 4,3 11,-2 14,-11 3,-8 10,-13 15,-9 5,3 12,1 15,-4 11,-16 -11,-22 -24,-6 -7,8 -16,12 -21,9 -5,-3 -15,-2 -21,3 -18,11 -101,11 -115,0 -7,-5 -16,-6 -21,-3 -6,3 -15,-1 -22,-10 -7,-8 -19,-13 -26,-10 -8,3 -18,-4 -24,-14 -9,-17 -14,-18 -30,-8 -10,7 -17,15 -15,19 7,10 -40,49 -65,54 -13,3 -30,11 -38,19 -9,9 -27,12 -53,9 -36,-5 -42,-2 -89,46 -27,28 -54,52 -60,52 -14,2 -22,5 -42,13 -22,10 -54,3 -51,-12 2,-6 -4,-9 -12,-6 -9,4 -15,19 -15,38 0,18 -6,38 -12,44 -10,10 -10,17 0,32 -6.8477,829.4096 4.4094,513.6087 1.8305,560.5763 z M 1925,1740 c -3,-5 5,-17 17,-27 24,-19 37,-63 19,-63 l -18,0 c -5,0 -8,5 -8,10 0,6 -7,15 -15,20 -8,5 -10,10 -5,10 6,0 3,6 -5,13 -8,7 -22,21 -30,31 -14,18 -13,19 2,13 10,-3 20,-2 23,4 4,5 11,7 16,3 5,-3 7,-9 4,-14 z"
       id="path111"
       style="fill:#000000;fill-opacity:0;stroke:#ffffff;stroke-width:100;stroke-miterlimit:4;stroke-dasharray:none;stroke-opacity:1"
       inkscape:connector-curvature="0"
       sodipodi:nodetypes="cccscccccccsccccccccscccccccsccsccsccccccccccsccscccccccccscccccccccccsccccccccccccscccccccccsccccccssccscssssssccccs" />
    <path
       d="m 2415,1650 c -3,-6 0,-12 7,-15 21,-8 67,-1 68,10 0,13 -67,18 -75,5 z"
       id="path133"
       style="fill:#000000;stroke:#ffffff;stroke-width:99.99999851;stroke-miterlimit:4;stroke-dasharray:none;stroke-opacity:1;fill-opacity:0"
       inkscape:connector-curvature="0" />
  </g>
  <g
     id="layer9"
     stroke="none"
     fill="#eecdb7"
     style="fill:#000000;fill-opacity:0;stroke-width:99.99999851;stroke-miterlimit:4;stroke-dasharray:none;stroke:#ffffff;stroke-opacity:1">
    <path
       d="m 1775,2805.7033 c -36,-20 -67,-52 -82,-88 -60,-140 -85,-312 -62,-429 8,-41 19,-76 26,-78 7,-3 19,12 27,31 8,20 38,60 66,90 24.8807,33.855 52.8627,64.4011 56.2034,107.8136 -4.1147,46.952 -1.0131,357.3256 -5.1865,363.1864 -15,18 -0.017,18 -26.0169,3 z"
       id="path389"
       style="fill:#000000;stroke:#ffffff;stroke-width:99.99999851;stroke-miterlimit:4;stroke-dasharray:none;stroke-opacity:1;fill-opacity:0"
       inkscape:connector-curvature="0"
       sodipodi:nodetypes="ccccccccc" />
    <path
       d="m 3319.4068,2813.6688 c -2.1528,-91.2671 11.2909,-171.3768 14.1356,-224.7966 24.0218,-304.9145 -14.9292,-200.7654 20.6271,-241.4915 42,-45 93.8305,-90.1356 110.8305,-142.1356 19,-63 50,86 41,203 -14,181 -53,291 -132,372 -38,39 -42.5932,54.4237 -54.5932,33.4237 z"
       id="path395"
       style="fill:#000000;stroke:#ffffff;stroke-width:99.99999851;stroke-miterlimit:4;stroke-dasharray:none;stroke-opacity:1;fill-opacity:0"
       inkscape:connector-curvature="0"
       sodipodi:nodetypes="ccccccc" />
  </g>
  <g
     id="layer10"
     transform="translate(0,5.5946724)"
     style="fill:#000000;stroke:#ffffff;fill-opacity:0;stroke-opacity:1">
    <path
       d="m 2460,4036 c -59,-15 -169,-73 -209,-109 -148,-137 -309,-500 -400,-902 -44,-196 -51,-216 -62,-209 -73.5037,-44.258 -61.028,-46.0112 14,-16 2,0 4,-89 5,-197 1,-109 3,-342 4,-518 l 3,-319 43,-29 c 23,-16 51,-46 62,-67 19,-38 28,-41 62,-23 13,7 -19,59 -52,87 -18,14 -26,26 -20,26 27,0 83,-35 107,-66 20,-26 33,-34 58,-34 53,0 125.1356,-18.5085 168.1356,-60.5085 l 40,-39 96.1017,37.9153 c 68,33 129,40 193,23 29,-8 0.7627,-35.4068 3.7627,-30.4068 -13.5661,27.6013 -99.594,65.0963 -51,54 50,-10 109,-43 144,-79 l 33,-34 40,28 c 84,61 205,58 279,-7 15,-13 19,-9 39,31 26,54 65,85 117,93 21,3 49,16 63,28 14,12 38,29 53,37 l 28,14 -1,412 c 0,227 3,411 7,410 1.0069,22.4085 -5.4426,58.0663 -6,75 -11,353 -147,818 -313,1078 -88,137 -211,251 -314,292 -64,25 -165,30 -234,13 z m 183,-363 c 40,-31 84,-94 108,-157 11,-27 23,-42 38,-44 13,-2 21,-11 21,-24 0,-17 -5,-20 -27,-15 -18,3 -44,-3 -72,-18 l -45,-22 -53,23 -54,24 -47,-24 -47,-24 -40,20 c -22,11 -55,20 -72,19 -26,0 -33,4 -33,19 0,12 8,20 23,22 12,2 21,6 19,11 -3,10 46,106 75,145 57,76 141,94 206,45 z m -36,-473 c 14,-11 41,-20 59,-20 40,0 61,-20 70,-65 9,-50 -4,-95 -31,-105 -39,-15 -75,-93 -75,-164 0,-33 -4,-66 -8,-71 -31.8522,-25.8929 -118.812,-34.8345 -123,6 -3,87 -14,146 -36,185 -14,24 -29,42 -33,39 -20,-12 -43,45 -38,95 6,63 21,80 68,80 23,0 47,8 61,20 31,25 55,25 86,0 z m -300,-605 c 20,-8 38,-13 41,-11 8,9 73,-65 88,-99 15,-38 19,-121 5,-129 -5,-3 -12,13 -15,36 -14,84 -85,178 -157,207 -13,5 -18,10 -11,10 7,1 29,-6 49,-14 z m 503,-14 c -69,-43 -129,-144 -131,-220 0,-23 -1,-24 -9,-6 -22,51 -4,132 39,183 18,21 114,72 136,72 6,0 -10,-13 -35,-29 z m -617,-118 c 21,-15 36,-32 33,-39 -3,-8 8,-21 24,-31 17,-9 30,-23 30,-29 0,-6 -23,-22 -52,-34 -40,-17 -65,-21 -114,-18 -54,3 -68,9 -108,42 -25,20 -46,43 -46,50 0,7 16,20 35,29 22,11 33,21 29,31 -8,20 42,36 91,30 22,-3 57,-17 78,-31 z m 884,27 c 38,-15 95,-78 86,-94 -10,-17 -61,-60 -90,-75 -32,-16 -116,-14 -165,6 -67,26 -72,32 -47,59 12,13 24,22 27,19 3,-2 13,0 24,6 20,11 15,34 -5,23 -7,-3 2,6 18,20 47,41 103,54 152,36 z m 151,-309 c -42,-47 -45,-48 -118,-57 -92,-11 -272,-12 -323,-1 -35,7 -78,50 -64,63 3,3 47,-1 98,-10 113,-19 225,-20 302,-2 60,14 136,57 138,79 1,6 3,4 6,-6 3,-12 -11,-35 -39,-66 z m -1274,8 c 83,-36 232,-37 424,-3 32,6 32,6 21,-19 -6,-14 -26,-31 -43,-37 -54,-19 -179,-23 -300,-10 l -117,12 -39,47 c -44,51 -56,90 -17,53 12,-11 44,-31 71,-43 z"
       id="path512"
       style="fill:#000000;fill-opacity:0;stroke:#ffffff;stroke-width:100;stroke-miterlimit:4;stroke-dasharray:none;stroke-opacity:1"
       inkscape:connector-curvature="0"
       sodipodi:nodetypes="ccccccccccccscsccccccccccccscccccccccccscccccccscscccccsccscccccsccsccccccsccccsccccscccscscccccccccccccccccccccccccccccc" />
  </g>
</svg>
